<svg width="28" height="29" viewBox="0 0 28 29" fill="none" xmlns="http://www.w3.org/2000/svg">
<path d="M3.5 15.7096C3.5 14.4228 3.5 13.7794 3.95808 13.4042C4.12071 13.2709 4.31838 13.1643 4.53867 13.0909C5.15915 12.8843 5.97461 13.0878 7.60551 13.4947C8.85064 13.8054 9.4732 13.9607 10.1023 13.9446C10.3333 13.9387 10.563 13.9156 10.788 13.8758C11.4006 13.7675 11.9465 13.495 13.0387 12.9501L14.6514 12.1452C16.0503 11.4472 16.7497 11.0981 17.5526 11.0176C18.3555 10.9372 19.1529 11.1361 20.7479 11.5341L22.1068 11.8732C23.2618 12.1613 23.8393 12.3055 24.1697 12.6485C24.5 12.9915 24.5 13.4472 24.5 14.3586V21.4571C24.5 22.7439 24.5 23.3873 24.042 23.7625C23.8793 23.8958 23.6816 24.0024 23.4613 24.0758C22.8409 24.2824 22.0254 24.0789 20.3945 23.672C19.1493 23.3613 18.5268 23.206 17.8977 23.2221C17.6667 23.228 17.437 23.2511 17.2121 23.2908C16.5994 23.3992 16.0534 23.6716 14.9613 24.2166L13.3486 25.0215C11.9497 25.7195 11.2503 26.0686 10.4474 26.1491C9.64453 26.2296 8.84705 26.0305 7.2521 25.6326L5.89321 25.2935C4.73817 25.0054 4.16065 24.8612 3.83033 24.5182C3.5 24.1752 3.5 23.7195 3.5 22.8081V15.7096Z" fill="#00DF9A"/>
<path fill-rule="evenodd" clip-rule="evenodd" d="M14 2.8335C10.134 2.8335 7 5.81096 7 9.48386C7 13.1279 9.23415 17.3803 12.7199 18.9009C13.5325 19.2555 14.4675 19.2555 15.2801 18.9009C18.7658 17.3803 21 13.1279 21 9.48386C21 5.81096 17.866 2.8335 14 2.8335ZM14 12.1668C15.2887 12.1668 16.3333 11.1222 16.3333 9.8335C16.3333 8.54483 15.2887 7.50016 14 7.50016C12.7113 7.50016 11.6667 8.54483 11.6667 9.8335C11.6667 11.1222 12.7113 12.1668 14 12.1668Z" fill="white"/>
</svg>
