<svg width="28" height="28" viewBox="0 0 33 33" fill="none" xmlns="http://www.w3.org/2000/svg">
<path d="M16.5 22.5C15.3133 22.5 14.1533 22.1481 13.1666 21.4888C12.1799 20.8295 11.4109 19.8925 10.9567 18.7961C10.5026 17.6997 10.3838 16.4933 10.6153 15.3295C10.8468 14.1656 11.4182 13.0965 12.2574 12.2574C13.0965 11.4182 14.1656 10.8468 15.3295 10.6153C16.4933 10.3838 17.6997 10.5026 18.7961 10.9567C19.8925 11.4109 20.8295 12.1799 21.4888 13.1666C22.1481 14.1533 22.5 15.3133 22.5 16.5C22.5027 17.5593 22.2208 18.5998 21.684 19.513C21.6196 19.6296 21.5325 19.7321 21.4279 19.8146C21.3233 19.897 21.2033 19.9577 21.0749 19.9932C20.9465 20.0286 20.8123 20.0381 20.6802 20.0209C20.5481 20.0038 20.4208 19.9605 20.3057 19.8934C20.1906 19.8264 20.09 19.7371 20.0099 19.6307C19.9298 19.5243 19.8717 19.4029 19.8392 19.2738C19.8066 19.1446 19.8002 19.0103 19.8202 18.8786C19.8403 18.7469 19.8864 18.6206 19.956 18.507C20.3135 17.8987 20.5013 17.2056 20.5 16.5C20.5 15.7089 20.2654 14.9355 19.8259 14.2777C19.3864 13.6199 18.7616 13.1072 18.0307 12.8045C17.2998 12.5017 16.4956 12.4225 15.7196 12.5769C14.9437 12.7312 14.231 13.1122 13.6716 13.6716C13.1122 14.231 12.7312 14.9437 12.5769 15.7196C12.4225 16.4956 12.5017 17.2998 12.8045 18.0307C13.1072 18.7616 13.6199 19.3864 14.2777 19.8259C14.9355 20.2654 15.7089 20.5 16.5 20.5C16.8154 20.501 17.1296 20.4617 17.435 20.383C17.562 20.3495 17.6943 20.3414 17.8245 20.359C17.9546 20.3767 18.08 20.4198 18.1935 20.4859C18.3069 20.552 18.4063 20.6399 18.4858 20.7444C18.5653 20.8489 18.6235 20.968 18.657 21.095C18.6905 21.222 18.6986 21.3543 18.681 21.4845C18.6633 21.6146 18.6202 21.74 18.5541 21.8535C18.488 21.9669 18.4002 22.0663 18.2956 22.1458C18.1911 22.2253 18.072 22.2835 17.945 22.317C17.4732 22.4396 16.9875 22.5011 16.5 22.5Z" fill="white"/>
<path d="M17.68 29.5H15.32C14.8576 29.5 14.4096 29.3397 14.0521 29.0465C13.6945 28.7534 13.4496 28.3454 13.359 27.892L12.945 25.822C12.7547 25.77 12.5696 25.7007 12.392 25.615L10.666 26.777C10.2813 27.0333 9.81979 27.1484 9.35983 27.1029C8.89986 27.0573 8.46988 26.8538 8.143 26.527L6.473 24.858C6.1473 24.5303 5.94459 24.1003 5.89905 23.6405C5.85351 23.1807 5.96792 22.7192 6.223 22.334L7.4 20.568C7.29748 20.4068 7.21393 20.2344 7.151 20.054L5.106 19.641C4.65298 19.55 4.24546 19.3049 3.95268 18.9474C3.65991 18.5899 3.49996 18.1421 3.5 17.68V15.32C3.50005 14.8576 3.66029 14.4096 3.95346 14.0521C4.24663 13.6945 4.65461 13.4496 5.108 13.359L7.178 12.945C7.22957 12.7558 7.29818 12.5718 7.383 12.395L6.223 10.666C5.968 10.2809 5.85362 9.81964 5.89917 9.36003C5.94471 8.90041 6.14738 8.47056 6.473 8.143L8.142 6.473C8.46953 6.14697 8.89959 5.94402 9.35948 5.89847C9.81936 5.85292 10.2809 5.96756 10.666 6.223L12.432 7.4C12.5936 7.29735 12.7664 7.21348 12.947 7.15L13.359 5.106C13.45 4.65298 13.6951 4.24546 14.0526 3.95268C14.4101 3.65991 14.8579 3.49996 15.32 3.5H17.68C18.1424 3.50005 18.5904 3.66029 18.9479 3.95346C19.3055 4.24663 19.5504 4.65461 19.641 5.108L20.055 7.178C20.2453 7.22997 20.4304 7.29926 20.608 7.385L22.334 6.223C22.7187 5.96671 23.1802 5.85156 23.6402 5.89714C24.1001 5.94272 24.5301 6.1462 24.857 6.473L26.527 8.142C26.8527 8.46972 27.0554 8.89974 27.1009 9.35953C27.1465 9.81932 27.0321 10.2808 26.777 10.666L25.6 12.432C25.7026 12.5936 25.7865 12.7664 25.85 12.947L27.894 13.359C28.347 13.45 28.7545 13.6951 29.0473 14.0526C29.3401 14.4101 29.5 14.8579 29.5 15.32V17.68C29.5 18.1424 29.3397 18.5904 29.0465 18.9479C28.7534 19.3055 28.3454 19.5504 27.892 19.641L25.822 20.055C25.77 20.2453 25.7007 20.4304 25.615 20.608L26.777 22.334C27.032 22.7191 27.1464 23.1804 27.1008 23.64C27.0553 24.0996 26.8526 24.5294 26.527 24.857L24.858 26.527C24.5303 26.8527 24.1003 27.0554 23.6405 27.1009C23.1807 27.1465 22.7192 27.0321 22.334 26.777L20.568 25.6C20.4064 25.7026 20.2336 25.7865 20.053 25.85L19.641 27.894C19.55 28.347 19.3049 28.7545 18.9474 29.0473C18.5899 29.3401 18.1421 29.5 17.68 29.5ZM12.389 23.613C12.6762 23.6135 12.9599 23.6755 13.221 23.795C13.368 23.862 13.515 23.924 13.665 23.981C13.9777 24.0975 14.2557 24.2916 14.4728 24.5451C14.6899 24.7985 14.839 25.1031 14.906 25.43L15.32 27.5H17.68L18.094 25.43C18.161 25.1031 18.3101 24.7985 18.5272 24.5451C18.7443 24.2916 19.0223 24.0975 19.335 23.981C19.485 23.9237 19.6323 23.862 19.777 23.796C20.0791 23.6545 20.4125 23.5929 20.7452 23.6172C21.0779 23.6416 21.3987 23.751 21.677 23.935L23.444 25.113L25.113 23.444L23.935 21.677C23.751 21.3988 23.6415 21.0779 23.617 20.7453C23.5925 20.4126 23.6538 20.0792 23.795 19.777C23.862 19.631 23.924 19.484 23.981 19.334C24.0975 19.0213 24.2916 18.7433 24.5451 18.5262C24.7985 18.3091 25.1031 18.16 25.43 18.093L27.5 17.68V15.32L25.43 14.906C25.1031 14.839 24.7985 14.6899 24.5451 14.4728C24.2916 14.2557 24.0975 13.9777 23.981 13.665C23.9237 13.515 23.862 13.3677 23.796 13.223C23.6546 12.9209 23.5931 12.5875 23.6174 12.2548C23.6417 11.9222 23.7511 11.6013 23.935 11.323L25.113 9.556L23.444 7.887L21.677 9.065C21.3989 9.24943 21.0781 9.35919 20.7453 9.38371C20.4126 9.40823 20.0791 9.34668 19.777 9.205C19.63 9.138 19.483 9.076 19.333 9.019C19.0206 8.90224 18.743 8.70801 18.5263 8.45455C18.3096 8.20109 18.1608 7.89672 18.094 7.57L17.68 5.5H15.32L14.906 7.57C14.839 7.89694 14.6899 8.20146 14.4728 8.45493C14.2557 8.70841 13.9777 8.90251 13.665 9.019C13.515 9.07633 13.3677 9.138 13.223 9.204C12.9209 9.34554 12.5875 9.4071 12.2548 9.38276C11.9221 9.35842 11.6013 9.249 11.323 9.065L9.556 7.887L7.887 9.556L9.065 11.322C9.24864 11.6004 9.35784 11.9212 9.38217 12.2539C9.40651 12.5865 9.34516 12.9198 9.204 13.222C9.13733 13.3673 9.07533 13.5153 9.018 13.666C8.90155 13.9785 8.70756 14.2562 8.45426 14.4731C8.20097 14.6901 7.89668 14.839 7.57 14.906L5.5 15.32V17.68L7.57 18.094C7.89701 18.1612 8.20156 18.3105 8.45503 18.5277C8.7085 18.745 8.90257 19.0231 9.019 19.336C9.07633 19.4853 9.13833 19.633 9.205 19.779C9.34611 20.0812 9.40734 20.4146 9.38283 20.7473C9.35832 21.0799 9.24889 21.4007 9.065 21.679L7.887 23.444L9.556 25.113L11.323 23.935C11.6386 23.7244 12.0096 23.6123 12.389 23.613Z" fill="#00DF9A"/>
</svg>
