<svg width="27" height="19" viewBox="0 0 27 19" fill="none" xmlns="http://www.w3.org/2000/svg">
<path d="M17.582 5.4165H22.1437L23.4679 8.33317H17.582V5.4165Z" fill="#00DF9A"/>
<path d="M25.7487 12.4168C25.594 12.4168 25.4456 12.3554 25.3362 12.246C25.2268 12.1366 25.1654 11.9882 25.1654 11.8335C25.1654 11.6788 25.2268 11.5304 25.3362 11.421C25.4456 11.3116 25.594 11.2502 25.7487 11.2502H26.9154C26.8798 11.0554 26.7953 10.8729 26.6698 10.7199C26.5443 10.5668 26.3819 10.4482 26.1979 10.3752L23.9987 9.50016H16.9987C16.844 9.50016 16.6956 9.4387 16.5862 9.32931C16.4768 9.21991 16.4154 9.07154 16.4154 8.91683V4.8335C16.4154 4.67879 16.4768 4.53041 16.5862 4.42102C16.6956 4.31162 16.844 4.25016 16.9987 4.25016H21.6129C21.3679 3.71933 21.1637 3.0835 20.3295 3.0835H1.2487C0.939279 3.0835 0.642532 3.20641 0.42374 3.42521C0.204948 3.644 0.0820313 3.94074 0.0820312 4.25016V11.2502H1.2487C1.40341 11.2502 1.55178 11.3116 1.66118 11.421C1.77057 11.5304 1.83203 11.6788 1.83203 11.8335C1.83203 11.9882 1.77057 12.1366 1.66118 12.246C1.55178 12.3554 1.40341 12.4168 1.2487 12.4168H0.0820312V14.7502C0.0820313 15.0596 0.204948 15.3563 0.42374 15.5751C0.642532 15.7939 0.939279 15.9168 1.2487 15.9168H1.83203C1.83203 14.9886 2.20078 14.0983 2.85716 13.442C3.51354 12.7856 4.40377 12.4168 5.33203 12.4168C6.26029 12.4168 7.15053 12.7856 7.80691 13.442C8.46328 14.0983 8.83203 14.9886 8.83203 15.9168H16.4154C16.4154 14.9886 16.7841 14.0983 17.4405 13.442C18.0969 12.7856 18.9871 12.4168 19.9154 12.4168C20.8436 12.4168 21.7339 12.7856 22.3902 13.442C23.0466 14.0983 23.4154 14.9886 23.4154 15.9168H25.7487C26.0581 15.9168 26.3549 15.7939 26.5737 15.5751C26.7925 15.3563 26.9154 15.0596 26.9154 14.7502V12.4168H25.7487ZM8.65703 8.74766C7.4087 10.0018 7.40286 10.0835 7.08203 10.0835C6.96617 10.0842 6.85273 10.0503 6.75617 9.98627C6.65962 9.92222 6.58433 9.83087 6.5399 9.72386C6.49547 9.61685 6.48391 9.49904 6.5067 9.38543C6.52949 9.27183 6.5856 9.16759 6.66786 9.086L6.84286 8.91683H4.16536C4.01066 8.91683 3.86228 8.85537 3.75289 8.74598C3.64349 8.63658 3.58203 8.48821 3.58203 8.3335C3.58203 8.17879 3.64349 8.03041 3.75289 7.92102C3.86228 7.81162 4.01066 7.75016 4.16536 7.75016H6.84286L6.66786 7.581C6.55802 7.47115 6.49631 7.32217 6.49631 7.16683C6.49631 7.01149 6.55802 6.86251 6.66786 6.75266C6.77771 6.64282 6.92669 6.58111 7.08203 6.58111C7.23737 6.58111 7.38635 6.64282 7.4962 6.75266L8.66287 7.91933C8.71716 7.97394 8.7601 8.03876 8.78922 8.11006C8.81833 8.18135 8.83305 8.2577 8.8325 8.33471C8.83196 8.41172 8.81618 8.48786 8.78606 8.55873C8.75594 8.62961 8.71209 8.69382 8.65703 8.74766Z" fill="#00DF9A"/>
<path d="M19.9154 18.2502C21.204 18.2502 22.2487 17.2055 22.2487 15.9168C22.2487 14.6282 21.204 13.5835 19.9154 13.5835C18.6267 13.5835 17.582 14.6282 17.582 15.9168C17.582 17.2055 18.6267 18.2502 19.9154 18.2502Z" fill="white"/>
<path d="M5.33333 18.2502C6.622 18.2502 7.66667 17.2055 7.66667 15.9168C7.66667 14.6282 6.622 13.5835 5.33333 13.5835C4.04467 13.5835 3 14.6282 3 15.9168C3 17.2055 4.04467 18.2502 5.33333 18.2502Z" fill="white"/>
<path d="M12.3333 1.91667H5.33333C5.17862 1.91667 5.03025 1.85521 4.92085 1.74581C4.81146 1.63642 4.75 1.48804 4.75 1.33333C4.75 1.17862 4.81146 1.03025 4.92085 0.920854C5.03025 0.811458 5.17862 0.75 5.33333 0.75H12.3333C12.488 0.75 12.6364 0.811458 12.7458 0.920854C12.8552 1.03025 12.9167 1.17862 12.9167 1.33333C12.9167 1.48804 12.8552 1.63642 12.7458 1.74581C12.6364 1.85521 12.488 1.91667 12.3333 1.91667ZM3 1.91667H1.83333C1.67862 1.91667 1.53025 1.85521 1.42085 1.74581C1.31146 1.63642 1.25 1.48804 1.25 1.33333C1.25 1.17862 1.31146 1.03025 1.42085 0.920854C1.53025 0.811458 1.67862 0.75 1.83333 0.75H3C3.15471 0.75 3.30308 0.811458 3.41248 0.920854C3.52188 1.03025 3.58333 1.17862 3.58333 1.33333C3.58333 1.48804 3.52188 1.63642 3.41248 1.74581C3.30308 1.85521 3.15471 1.91667 3 1.91667Z" fill="white"/>
</svg>
