<svg width="24" height="24" viewBox="0 0 24 24" fill="none" xmlns="http://www.w3.org/2000/svg">
<path d="M24.5 12.502C24.5 5.87987 19.1039 0.5 12.5021 0.5C5.87781 0.5 0.502538 5.89879 0.500113 12.4975C0.500113 12.4977 0.5 12.4978 0.5 12.498C0.5 12.4982 0.500087 12.4983 0.500087 12.4985C0.500087 12.4996 0.5 12.5008 0.5 12.502C0.5 19.0903 5.86582 24.4974 12.4977 24.4999C12.4979 24.4999 12.498 24.5 12.4982 24.5C12.4984 24.5 12.4985 24.4999 12.4987 24.4999C12.4998 24.4999 12.501 24.5 12.5021 24.5C19.1109 24.5 24.5 19.1118 24.5 12.502ZM23.7635 12.1383H21.0706C21.0165 10.8402 20.674 9.61748 20.1059 8.53092L22.4374 7.18484C23.2345 8.66932 23.7065 10.3521 23.7635 12.1383ZM21.0706 12.8656H23.7635C23.7065 14.6518 23.2342 16.3346 22.4365 17.8189L20.1045 16.4725C20.6733 15.3861 21.0163 14.1634 21.0706 12.8656ZM22.0719 6.55593L19.7416 7.90132C19.0658 6.83922 18.1636 5.93652 17.1021 5.26028L18.4476 2.92975C19.9149 3.84513 21.1571 5.08791 22.0719 6.55593ZM12.8658 3.92953V1.23651C14.6519 1.29357 16.3346 1.76603 17.8189 2.56392L16.4727 4.89562C15.3863 4.32681 14.1636 3.9838 12.8658 3.92953ZM12.5005 12.1347C13.5805 12.1347 14.4605 13.0147 14.4605 14.0947C14.4605 15.0511 13.7733 15.8475 12.8642 16.0184V16.4438C12.8642 16.6475 12.7006 16.8075 12.5005 16.8075C12.3005 16.8075 12.1369 16.6475 12.1369 16.4438V16.0184C11.2278 15.8475 10.5405 15.0511 10.5405 14.0947C10.5405 13.8947 10.7042 13.7311 10.9042 13.7311C11.1042 13.7311 11.2678 13.8947 11.2678 14.0947C11.2678 14.7747 11.8205 15.3275 12.5005 15.3275C13.1805 15.3275 13.7333 14.7747 13.7333 14.0947C13.7333 13.4148 13.1805 12.862 12.5005 12.862C11.4205 12.862 10.5405 11.9857 10.5405 10.9057C10.5405 9.94929 11.2278 9.15292 12.1369 8.98202V8.55293C12.1369 8.35292 12.3005 8.1893 12.5005 8.1893C12.7006 8.1893 12.8642 8.35292 12.8642 8.55293V8.98202C13.7733 9.15292 14.4605 9.94928 14.4605 10.9057C14.4605 11.1056 14.2969 11.2693 14.0969 11.2693C13.8933 11.2693 13.7333 11.1056 13.7333 10.9057C13.7333 10.2257 13.1805 9.67292 12.5005 9.67292C11.8205 9.67292 11.2678 10.2257 11.2678 10.9057C11.2678 11.582 11.8205 12.1347 12.5005 12.1347ZM12.1385 3.92951C10.8404 3.98357 9.61774 4.32611 8.53119 4.89427L7.18519 2.56295C8.66963 1.76565 10.3524 1.2935 12.1385 1.23651V3.92951ZM8.71145 12.4984C8.71145 13.0911 8.23144 13.5747 7.63508 13.5747C7.04235 13.5747 6.56237 13.0911 6.56237 12.4984C6.56237 11.9093 7.04235 11.4256 7.63508 11.4256C8.23144 11.4256 8.71145 11.9093 8.71145 12.4984ZM12.1346 21.0703V23.7634C10.3485 23.7058 8.66582 23.2333 7.18157 22.4357L8.52777 20.104C9.61408 20.6726 10.8366 21.0156 12.1346 21.0703ZM12.8619 21.0704C14.1599 21.0168 15.3827 20.6743 16.4695 20.106L17.8159 22.4381C16.3312 23.2353 14.6482 23.7072 12.8619 23.7636V21.0704ZM16.2896 12.4984C16.2896 11.9093 16.7696 11.4256 17.3624 11.4256C17.9587 11.4256 18.4387 11.9093 18.4387 12.4984C18.4387 13.0911 17.9587 13.5747 17.3624 13.5747C16.7696 13.5748 16.2896 13.0911 16.2896 12.4984ZM6.55633 2.92849L7.90159 5.25856C6.83969 5.93432 5.93708 6.83656 5.26088 7.89812L2.93071 6.55282C3.84608 5.08552 5.08864 3.84333 6.55633 2.92849ZM1.2364 12.8617H3.92964C3.98336 14.1596 4.32577 15.3824 4.89409 16.4691L2.56219 17.8155C1.76478 16.3309 1.29284 14.6479 1.2364 12.8617ZM2.56481 7.18151L4.89622 8.52752C4.32755 9.61384 3.98444 10.8365 3.9298 12.1344H1.23659C1.29421 10.3484 1.76691 8.66571 2.56481 7.18151ZM2.92769 18.4443L5.25844 17.0987C5.93422 18.1605 6.83656 19.0631 7.89835 19.7394L6.55285 22.0699C5.08509 21.1546 3.84262 19.912 2.92769 18.4443ZM18.4448 22.0726L17.099 19.7417C18.161 19.0659 19.0637 18.1636 19.7399 17.1019L22.0708 18.4476C21.1555 19.9153 19.9128 21.1578 18.4448 22.0726Z" fill="#00DF9A"/>
</svg>
